Love for All and Sharing is the first step to solving all the problems of humanity.

Websites I want to share.

    
http://www.shareintl.org/

    
http://www.lightmiddleway.com


Thank you very much

No credit for me...credit to EVERYONE for sharing
 
http://thepiratebay.org/user/raymondhome/

PLOT
Based on Thomas Hardy's The Mayor of Casterbridge, The Claim follows the story of Daniel Dillon, who traded his wife and newborn daughter for a gold mine. 20 years later he is thrown into a kind of hell in the prospecting city he controls is being surveyed as potential railroad route and the wife and daughter that he hocked for his riches show up as well. Written by Spassvogel (IMDb)

Duration : 2h 0mn
Video
ID : 0
Format : MPEG-4 Visual
Format profile : AdvancedSimple@L5
Format settings, BVOP : Yes
Format settings, QPel : No
Format settings, GMC : No warppoints
Format settings, Matrix : Default (H.263)
Codec ID : XVID
Codec ID/Hint : XviD
Duration : 2h 0mn
Bit rate : 1 154 Kbps
Width : 640 pixels
Height : 272 pixels
Display aspect ratio : 2.35:1
Frame rate : 23.976 fps
Resolution : 24 bits
Colorimetry : 4:2:0
Scan type : Progressive
Bits/(Pixel*Frame) : 0.276
Stream size : 998 MiB (72%)
Writing library : XviD 1.2.1 (UTC 2008-12-04)
Audio
ID : 1
Format : AC-3
Format/Info : Audio Coding 3
Codec ID : 2000
Duration : 2h 0mn
Bit rate mode : Constant
Bit rate : 384 Kbps
Channel(s) : 6 channels
Channel positions : Front: L C R, Surround: L R, LFE
Sampling rate : 48.0 KHz
Stream size : 387 MiB (28%)
Alignment : Split accross interleaves
Interleave, duration : 42 ms (1.00 video frame)
Interleave, preload duration : 500 ms

credit SPRiNTER & to all the people who made it possible for me to share this with everyone

UPLOAD DEDICATED TO redchaos2354, Motley Crue, jdpennington, BADASS, W1ck3d1nt3ntz, ceo54, DaRkReAlM, ghostman, karakurachow, megaplay, Emery1337x, SaM, geordieboy1979, timamirrockdude, Noir, Shedevil, bone111, JorgeMontana, BlueLady, xxxUniversalAbsurdityxxx, mc68, TheFalcon007, pardeep333, X, DR67, DiNGiE & many, many more & to all the awesome people who are sharing (ALL THE UPLOADERS, THE RIPPERS, THE SCENE GROUPS, ETC, THE WHOLE P2P COMMUNITY)***wish i could list everyone***Thank you very much everyone & i mean EVERYONE!!!

*****help what we can with haiti or any other in need...the world is ONE big family*****